<?xml version="1.0" encoding="UTF-8"?>
<svg width="512" height="512" version="1.1" viewBox="0 0 512 512" xmlns="http://www.w3.org/2000/svg">
 <rect width="512" height="512" fill="#ffffff"/>
 <g transform="matrix(18.783 0 0 18.783 56.566 56.566)">
  <path d="m19.319 3.2865h-13.638c-1.3703 0-2.4809 1.1106-2.4809 2.4809v13.638c0 1.3703 1.1106 2.4809 2.4809 2.4809h13.638c1.3703 0 2.4809-1.1106 2.4809-2.4809v-13.638c0-1.3703-1.1106-2.4809-2.4809-2.4809zm0.82696 16.119c0 0.45676-0.3702 0.82696-0.82696 0.82696h-13.638c-0.45676 0-0.82696-0.3702-0.82696-0.82696v-13.638c0-0.45676 0.3702-0.82696 0.82696-0.82696h13.638c0.45676 0 0.82696 0.3702 0.82696 0.82696v13.638z" fill="#000000"/>
  <path d="m16.838 8.2491h-8.6761c-0.45676 0-0.82696 0.3702-0.82696 0.82696s0.3702 0.82696 0.82696 0.82696h8.6761c0.45676 0 0.82696-0.3702 0.82696-0.82696s-0.3702-0.82696-0.82696-0.82696z" fill="#000000"/>
  <path d="m16.838 11.557h-8.6761c-0.45676 0-0.82696 0.3702-0.82696 0.82696s0.3702 0.82696 0.82696 0.82696h8.6761c0.45676 0 0.82696-0.3702 0.82696-0.82696s-0.3702-0.82696-0.82696-0.82696z" fill="#000000"/>
  <path d="m16.838 14.865h-8.6761c-0.45676 0-0.82696 0.3702-0.82696 0.82696s0.3702 0.82696 0.82696 0.82696h8.6761c0.45676 0 0.82696-0.3702 0.82696-0.82696s-0.3702-0.82696-0.82696-0.82696z" fill="#000000"/>
 </g>
</svg>
